<?xml version="1.0" encoding="UTF-8" standalone="no"?>
<!-- Created with Inkscape (http://www.inkscape.org/) -->

<svg
   xmlns:dc="http://purl.org/dc/elements/1.1/"
   xmlns:cc="http://creativecommons.org/ns#"
   xmlns:rdf="http://www.w3.org/1999/02/22-rdf-syntax-ns#"
   xmlns:svg="http://www.w3.org/2000/svg"
   xmlns="http://www.w3.org/2000/svg"
   xmlns:sodipodi="http://sodipodi.sourceforge.net/DTD/sodipodi-0.dtd"
   xmlns:inkscape="http://www.inkscape.org/namespaces/inkscape"
   width="30px"
   height="30px"
   viewBox="0 0 644.09448819 100.3622047">
  <title
     id="title12199">Whale</title>
  <defs
     id="defs11627" />
  <g
     inkscape:label="Camada 1"
     inkscape:groupmode="layer"
     id="layer1">
    <path
       id="path12197"
       d="m 531.16282,125.11325 c 16.08352,1.01266 30.02535,4.63456 51.8387,2.33194 1.15184,0.11333 3.7441,0.6101 1.70659,2.76631 -2.87262,2.03609 -7.10363,5.19323 -12.5332,9.67578 -10.85914,8.9651 -30.05162,22.98152 -49.24452,44.19472 -28.27826,31.25492 -28.58007,77.05469 -28.58007,77.05469 l -0.082,1.75195 c 0,0 2.90322,83.82852 -78.41406,85.34375 -81.31727,1.51523 -167.68554,3.53516 -167.68554,3.53516 0,0 -36.01851,-0.41691 -66.88436,-4.99295 -15.1155,-1.51732 -29.5796,-7.15655 -41.38912,-14.76967 -4.94414,-3.21994 -9.63037,-6.94885 -15.08395,-11.82722 -1.47343,-1.27386 -1.81486,-2.64889 0.4961,-2.23829 15.47489,2.2214 79.70961,10.04415 110.23437,-8.09375 -42.93148,2.02031 -94.86215,6.95677 -108.08594,-3.53515 0,0 -25.15511,-12.39442 -20.70703,-43.4375 4.47846,-31.25512 9.59575,-90.91373 22.22266,-107.07617 12.62691,-16.16244 27.13603,-32.01355 92.42969,-29.29297 67.01251,3.6426 141.8925,19.1008 162.5,84.5625 16.24125,51.40883 41.88166,67.04377 67.77734,48.44336 7.27404,-4.58737 10.05003,-12.56843 12.73828,-20.01368 3.51915,-9.82655 3.36807,-17.41831 0.6836,-31.16992 -3.283,-11.61675 -17.1739,-26.26527 -34.85157,-37.37695 -13.80361,-8.67656 -46.70346,-36.255 -54.25,-42.62109 -0.59368,-1.1997 -0.76955,-2.63245 2.96875,-2.3125 21.59628,5.2402 73.50586,1.24414 73.50586,1.24414 27.45108,0.83949 21.64421,9.74335 30.05078,35.60937 -0.37974,3.8748 3.71651,4.7998 4.29297,1.00977 0,0 -0.50408,0.5052 3.78907,-19.44532 3.09797,-14.39643 23.02862,-18.79986 38.72484,-19.28132 0.61758,-0.019 1.22861,-0.0318 1.8318,-0.039 z m -264.3125,149.85352 c -7.49518,6.2e-4 -13.57077,6.07708 -13.57031,13.57226 -4.7e-4,7.49518 6.07513,13.57165 13.57031,13.57227 7.49595,4.6e-4 13.57273,-6.07632 13.57226,-13.57227 4.6e-4,-7.49594 -6.07632,-13.57272 -13.57226,-13.57226 z"
       style="fill:#27430E;fill-opacity:1;fill-rule:evenodd;stroke:#27430E;stroke-width:2.6;stroke-linecap:butt;stroke-linejoin:miter;stroke-opacity:1;stroke-miterlimit:4;stroke-dasharray:none"
       inkscape:connector-curvature="0"
       sodipodi:nodetypes="cccssccscccccccsscccccscccccssccccccc" />
  </g>
</svg>
